<?xml version="1.0" encoding="utf-8"?>
<!-- Generator: Adobe Illustrator 25.3.1, SVG Export Plug-In . SVG Version: 6.00 Build 0)  -->
<svg version="1.1" id="white" xmlns="http://www.w3.org/2000/svg" xmlns:xlink="http://www.w3.org/1999/xlink" x="0px" y="0px"
	 viewBox="0 0 612 327" style="enable-background:new 0 0 612 327;" xml:space="preserve">
<style type="text/css">
	.st0{fill:#FFFFFF;stroke:#006A38;stroke-miterlimit:10;}
	.st1{fill:#FFFFFF;}
	.st2{font-family:'Carlsberg';}
	.st3{font-size:33.12px;}
	.st4{fill:none;stroke:#006A38;stroke-miterlimit:10;}
	.st5{fill:#006A38;}
</style>
<path class="st0" d="M120.4,303.1c2.8-2,18.5-11.9,18.5-11.9s12.5-7,15.8-9.2s14.1-8.7,17.4-9.2s22.3-6.5,22.3-6.5l17.9-3.2
	l12.8-1.6c0,0,5.4-1.6,7.3-1.6h33.2l12.2,1.9l13.3,1.6l10.3,2.2c0,0,11.1,2.4,12.2,2.4s11.4,2.4,12.8,3.2s12,2.9,15.5,4.5
	s13,5.5,15.8,5.8s11.4,3.2,14.7,4.1s11.1,3.8,14.7,4.6s9,3,12,3.5s6.8,2.2,9,2.7s7.6,0.8,9,1.4c2.5,0.8,5,1.4,7.6,1.9
	c1.4,0.3,12.5,1.4,12.5,1.4s8.1,0,12,0.3s11.7,0,13.6-0.5s4.1,0,7.6-1.6s0.8,0,3.5-1.6l6.8-4.1c1.7-0.9,3.2-2,4.6-3.2
	c1.6-1.6,5.4-5.4,5.7-6.2s3.5-6.5,3.5-6.5l2.2-6.8v-8.4c0,0,0.5-11.1,6-2.4c-0.5,1.6-0.5,8.1-1.1,9.5c-1.1,3.8-1.9,7.7-2.5,11.7
	c-0.8,3.3-1.9,6.4-3.3,9.5c-1.1,1.9-7.6,7.6-8.4,8.4s-10.6,7-10.6,7l-9.7,3.7l-11.1,2.6h-29.5c0,0-5.2,0.8-8.4,0s-15.8-3-15.8-3
	l-18.8-3.5l-19.6-4.1l-18.8-4.1c0,0-6.5-1.1-10.9-2.2s-22.8-3.5-22.8-3.5l-18.2-1.4c0,0-15.5-1.1-16.6-1.1s-17.9,0.5-17.9,0.5
	s-12.5,1.4-13.3,1.6s-8.2,2.2-8.2,2.2s-6,1.6-8.7,2.7s-13.1,3.2-14.4,4.1s-10.3,5.4-11.4,6s-10.3,6-10.3,6l-11.1,7.2l-5.7,5.4
	c-0.8,0.4-1.6,0.8-2.3,1.4c-0.4,0.4-3.7-1.9-3.7-1.9l-6-5.6c0,0-6.2-5.4-7.1-6s-7.5-2.6-7.5-2.6l-7.8-3l-9.2-0.8l-10-0.4
	c0,0-1,0.1-1.3,0.1S117.6,305.1,120.4,303.1z"/>
<g id="text">
	<path class="st0" d="M75.4,130.8c1.8,0,2.6,1.6,2.6,4.7l-4,7.7c9.8,15.7,14.7,27.6,14.7,35.7v12.4c0,12.5-6.2,25.4-18.7,38.8
		c-6.1,4.4-16,7-29.4,7.8c-14.8,0-27.3-11.4-37.4-34.2l-2.7-15.5v-4.7c0-21.2,8-38.8,24.1-52.8L75.4,130.8z M17.9,197.5
		c5,18.7,13.5,28,25.4,28H54c10.5,0,18.1-10.4,22.7-31.1v-6.2c0-16.9-9.8-27.8-29.4-32.6h-2.7C26.8,155.6,17.9,169.6,17.9,197.5z"/>
	<path class="st0" d="M91.3,130.1h15.6l2.6,3v60.1c0,15,3.9,22.5,11.7,22.5h15.5c2,0,3.7-3.5,5.2-10.5c4.5,0,7.1,5,7.8,15.1v1.5
		l-6.5,7.5H91.3l-2.6-3l5.2-6v-75.1c0-3.6-1.7-7.6-5.2-12L91.3,130.1z"/>
	<path class="st0" d="M194.8,125.5h2.7c22.9,0,34.3,19.1,34.3,57.3v14.3c-4,27.6-15.9,41.4-35.7,41.4h-23.3l-13.7-1.6v-3.2
		c2.8,0,4.1-1.1,4.1-3.2v-81.3h-1.4c-6.4,2.6-9.6,5.8-9.6,9.6h-2.7C155.4,136.7,170.5,125.5,194.8,125.5z M181.1,147.8v78.1h5.5
		c14.9,0,24.5-11.7,28.8-35.1v-9.5c-3.2-22.3-11.4-33.5-24.7-33.5L181.1,147.8z"/>
	<path class="st0" d="M284.5,129.2H326l2.7,3.1l-8,20.2l-18.7-6.2c-7.1,0-10.7,4.7-10.7,14c0,6.8,8.9,16.1,26.7,27.9
		c3.5,5,5.3,11,5.4,17.1v1.6c-1.2,10.1-6.5,19.5-16,28h-48.2v-1.6c3.6-5.6,5.4-10.2,5.4-14l-2.7-10.8h1.3
		c5.9,8.2,14.4,12.3,25.4,12.3c9.8-3.7,14.7-9.9,14.7-18.6c0-7.5-10.7-19.4-32.1-35.7c-2.5-5.9-3.8-12.2-4-18.6
		C267.2,137.1,273,130.9,284.5,129.2z"/>
	<path class="st0" d="M338,129.2c8.9,3.6,13.4,7.7,13.4,12.4h1.3c0-7.2,5.3-11.4,16-12.4c14.3,4.1,21.4,11.9,21.4,23.3v9.3
		c0,16.4-4.5,26.7-13.4,31l-5.4,1.6H366l-13.4-6.2V227l4,6.2v1.6h-17.3l-2.7-3.1v-83.8c0-2-2.7-4.1-8-6.2V140
		C328.7,135.4,331.8,131.8,338,129.2z M352.7,155.6v10.8c0,8.3,3.1,12.5,9.3,12.5h2.7c8,0,12.1-5.7,12.1-17.1
		c0-13.5-4.9-20.2-14.7-20.2C355.8,144,352.7,148.6,352.7,155.6L352.7,155.6z"/>
	<path class="st0" d="M415.2,127.6l18.4,3l13.2-3v1.6c-3.3,8.2-10.4,12.3-21.1,12.3V221l6.6,1.6c4.8,0.1,9.5-1.5,13.2-4.6l1.3,1.6
		v1.4c-4.7,8.2-11.3,12.3-19.8,12.3l-21.1-1.5l-15.8,3.1v-1.6c2.2-5.1,8.4-9.7,18.4-13.8v-79.7h-1.3l-17.2,3v-1.5
		C396.4,132.2,404.8,127.6,415.2,127.6z"/>
	<path class="st0" d="M471.6,130h57.8l1.1,1.3L510.2,162c-5-4.7-10-7-14.9-7h-2.2c-14.1,0-23.4,11.1-28.1,33.2v3.9
		c0,16.8,8.1,29.4,24.2,37.7c3,1.3,6.2,1.9,9.4,1.9h3.9c7.9,0,15.8-3.8,23.7-11.5l1.6,1.9v1.2c-9.4,11.5-20.9,17.2-34.7,17.2
		c-18,0-32.1-11.1-42.4-33.2c-2.5-7.2-3.8-14.7-3.9-22.4v-1.9c0-18.7,7.5-36.2,22.6-52.5L471.6,130z"/>
	<path class="st0" d="M534.7,128.8h74l2.7,3.2v1.6c-8.4,14.5-14.3,23-17.8,25.5c-7.6-5.3-14-8-19.2-8c-10.9,3.8-16.4,7.5-16.4,11.1
		v14.3l20.5,1.6l9.6-3.2v1.6c0,5-5.9,9.2-17.8,12.7h-12.3V210c0,7.4,3.2,11.1,9.6,11.1h16.5c5.5,0,8.2-3.2,8.2-9.5
		c5.5,2.5,8.2,6.2,8.2,11.1c-2,9.5-4.3,14.3-6.8,14.3h-56.2l-2.7-3.2c3.6-3.7,5.5-7.5,5.5-11.1v-33.5l-9.6,1.6v-1.6
		c2.8-5.3,6-7.9,9.6-7.9v-33.5c0-6-1.8-10.8-5.5-14.3V128.8z"/>
</g>
<text transform="matrix(1 0 0 1 17.87 101.18)" class="st1 st2 st3">Pure Sport Scent  High Endurance</text>
<text transform="matrix(1 0 0 1 17.87 101.18)" class="st4 st2 st3">Pure Sport Scent  High Endurance</text>
<g id="leaf">
	<path class="st1" d="M533.6,17.1c-2.3-0.1-4.4-1.5-5.3-3.6c-4.3-8.7-9.4-13.8-13.5-12.4c-3.9,1.3-6,8.1-6,17.4
		c0.1,2.5-1.1,4.8-3.2,6.2c-2.2,1.3-4.2,2.9-6,4.6c-2.1,2.2-5.6,2.3-7.8,0.2c-0.3-0.3-0.5-0.6-0.7-0.9l-0.1-0.1
		c-1.4-2-1.9-4.6-1.1-7c2.9-9.5,2.9-17.3-0.7-20c-3.4-2.6-9.2,0-15.3,6.1c-1.6,1.7-4.1,2.1-6.2,1.2c-9.4-4.3-16.9-3.2-20.1,2.5
		s-1.2,14.1,5.8,22.5c1.6,2,2.2,4.6,1.5,7.1c-2.5,8.9-2.3,16.1,1.1,18.7c3.6,2.8,9.8-0.2,16.2-7c1.5-1.7,3.8-2.3,6-1.6l0.8,0.3
		c3,1.1,4.8,4.7,4.1,8.3c-0.5,2.5-0.8,5-1,7.5c-0.1,2.4-1.4,4.6-3.5,5.8c-7.9,4.2-12.7,9.7-11.9,14.6c0.7,4.7,6.4,7.7,14.4,8.5
		c2.4,0.4,4.4,2.1,5.1,4.4c3.9,10.8,9.8,16.2,15.5,15s9.6-8.8,9.9-20.5c0-2.5,1.3-4.8,3.4-6.2c7.2-4.1,11.5-9.3,10.8-14
		c-0.8-4.9-7-8-15.6-8.6c-2.3-0.2-4.3-1.8-5.1-3.9c-2.2-5.1-4.7-9.4-7.4-12.1l0.1-0.2l0,0c3.2,2.9,8.5,4.3,15.1,3.9
		c2.4-0.1,4.6,1.2,5.6,3.3c4.2,8,9,12.5,13,11.2c4.1-1.3,6.2-8.8,6-18.8c-0.1-2.4,1-4.8,2.9-6.3c8-5.7,13.2-12.5,11.8-17.9
		S543,17.1,533.6,17.1z"/>
	<path class="st4" d="M533.6,17.1c-2.3-0.1-4.4-1.5-5.3-3.6c-4.3-8.7-9.4-13.8-13.5-12.4c-3.9,1.3-6,8.1-6,17.4
		c0.1,2.5-1.1,4.8-3.2,6.2c-2.2,1.3-4.2,2.9-6,4.6c-2.1,2.2-5.6,2.3-7.8,0.2c-0.3-0.3-0.5-0.6-0.7-0.9l-0.1-0.1
		c-1.4-2-1.9-4.6-1.1-7c2.9-9.5,2.9-17.3-0.7-20c-3.4-2.6-9.2,0-15.3,6.1c-1.6,1.7-4.1,2.1-6.2,1.2c-9.4-4.3-16.9-3.2-20.1,2.5
		s-1.2,14.1,5.8,22.5c1.6,2,2.2,4.6,1.5,7.1c-2.5,8.9-2.3,16.1,1.1,18.7c3.6,2.8,9.8-0.2,16.2-7c1.5-1.7,3.8-2.3,6-1.6l0.8,0.3
		c3,1.1,4.8,4.7,4.1,8.3c-0.5,2.5-0.8,5-1,7.5c-0.1,2.4-1.4,4.6-3.5,5.8c-7.9,4.2-12.7,9.7-11.9,14.6c0.7,4.7,6.4,7.7,14.4,8.5
		c2.4,0.4,4.4,2.1,5.1,4.4c3.9,10.8,9.8,16.2,15.5,15s9.6-8.8,9.9-20.5c0-2.5,1.3-4.8,3.4-6.2c7.2-4.1,11.5-9.3,10.8-14
		c-0.8-4.9-7-8-15.6-8.6c-2.3-0.2-4.3-1.8-5.1-3.9c-2.2-5.1-4.7-9.4-7.4-12.1l0.1-0.2l0,0c3.2,2.9,8.5,4.3,15.1,3.9
		c2.4-0.1,4.6,1.2,5.6,3.3c4.2,8,9,12.5,13,11.2c4.1-1.3,6.2-8.8,6-18.8c-0.1-2.4,1-4.8,2.9-6.3c8-5.7,13.2-12.5,11.8-17.9
		S543,17.1,533.6,17.1z"/>
</g>
<g id="ship">
	<path class="st5" d="M164.2,295.2c0.3-1.9,0.6-3.6,1-5.4c0.4-2.2,1-4.3,1.5-6.4c0.1-0.4,0.2-0.6,0.7-0.6c0.7-0.1,1.4-0.2,2.2-0.2
		s0.4-0.4,0.4-0.7c0.1-0.4-0.3-0.3-0.5-0.3c-0.8,0.1-1.6,0.3-2.4,0.6c0-0.4,0.1-0.8,0.3-1.1c0.3-0.9,0.6-1.9,0.9-2.8
		c0.1-0.5,0.5-0.9,1-0.9c0.8-0.1,0.8-0.1,0.8-0.9c0-0.1,0-0.3,0-0.4c0-0.1,0-0.3,0.2-0.3s0.2,0.1,0.2,0.3c0,0.3,0,0.6,0,0.9
		s0.1,0.4,0.4,0.4c2.2,0.2,1.6-0.2,2.3,1.8c0.3,0.9,0.6,1.9,0.8,2.8c-0.9-0.3-1.8-0.5-2.8-0.5c-0.3,0-0.6,0.2-0.6,0.5
		c0,0.1,0,0.3,0.1,0.4c0.1,0.2,0.2,0.1,0.4,0.1c0.8,0,1.6,0.1,2.3,0.3c0.9,0.2,0.9,0.2,1,1.1c0.2,2.3,0.7,4.7,1.3,6.9
		c0.2,0.9,0.5,1.7,0.9,2.5c0.2,0.4,0.1,0.9-0.1,1.3c-0.1,0.3-0.3,0.1-0.4,0c-1.2-0.7-2.4-1.2-3.8-1.4c-1.6-0.2-1.6-0.3-1.6,1.3
		c0,0.7,0,0.7,0.7,0.7c0.9,0,1.8,0.1,2.6,0.2c0.4,0,0.8,0.3,0.8,0.8c0,0,0,0,0,0.1c0.3,3,0.9,5.9,1.9,8.7c0,0.3,0.3,0.5,0.6,0.5
		c1.4,0,2.7,0,4.1,0.1c0.5,0,0.6-0.2,0.6-0.6s0-1,0-1.4s-0.1-0.5-0.5-0.5c-1.4,0-2.8,0.2-4.1,0.6c-0.4,0.1-0.4,0-0.5-0.3
		c-0.3-1.3-0.7-2.6-0.9-3.9c-0.1-0.4-0.1-0.7,0-1.1c0.2-1.3,0.6-2.6,1.2-3.8c0.1-0.3,0.4-0.5,0.6-0.5c1.2-0.2,2.5-0.3,3.8-0.3
		c0.3,0,0.4-0.1,0.4-0.4s0-0.9,0-1.3s-0.1-0.4-0.4-0.4c-1.3,0.2-2.6,0.6-3.8,1.4c-0.1,0.1-0.2,0.2-0.4,0.1s-0.1-0.2-0.1-0.4
		c0.4-3.7,1-7.4,1.9-11c0.1-0.4,0.4-0.8,0.9-0.8c0.5-0.1,1-0.2,1.5-0.2c0.6,0,0.4-0.5,0.4-0.8c0-0.5-0.4-0.3-0.6-0.2
		c-0.6,0.1-1.1,0.3-1.7,0.4c-0.1-0.2,0-0.4,0.1-0.5c0.4-1.3,0.8-2.7,1.4-4c0.1-0.3,0.2-0.5,0.6-0.5s0.3-0.2,0.3-0.4
		c0-0.8,0-1.7,0-2.5c0-0.4,0.2-0.6,0.6-0.3c1.6,1.4,3.5,1.6,5.5,1.6c0.9,0,1.9,0,2.8,0s1.7,0.3,1.9,1.4c0.1,0.5,0.5,0.9,1,0.9
		c0.6,0,1.2,0.2,1.7,0.4c0.1,0.1,0.4,0.2,0.3,0.4s-0.3,0-0.4,0c-0.6-0.2-1.1-0.3-1.7-0.3c-0.5,0-1-0.4-1.1-0.9
		c-0.3-1-0.6-1.2-1.7-1.2c-1.4,0-2.9,0.1-4.4,0c-1.4,0-2.7-0.5-3.8-1.3c0,0.7,0,1.4,0,2c0,0.2,0.2,0.1,0.3,0.1
		c0.6,0,1.2,0.1,1.7,0.2c0.2,0,0.4,0.1,0.5,0.3c0.8,1.4,1.4,2.9,1.8,4.4c0.1,0.3,0,0.3-0.3,0.2c-1.2-0.3-2.4-0.5-3.6-0.5
		c-0.3,0-0.5,0-0.4,0.4s-0.2,0.6,0.4,0.7c1.3,0,2.6,0.2,3.9,0.3c0.2,0,0.5,0.2,0.5,0.4c0.8,3.6,1.4,7.3,1.6,11.1
		c0,0.4,0,0.6-0.5,0.4c-1.7-0.8-3.5-1.2-5.3-1.3c-0.4,0-0.6,0.1-0.5,0.5s-0.1,1.1,0.1,1.4s0.9,0.1,1.3,0.2c1.5,0.2,1.5,0.2,1.6,1.8
		c0.1,3.3,0.9,6.5,2.4,9.4c0.1,0.3,0.5,0.6,0.8,0.5c0.4-0.1,0.8-0.1,1.2-0.1c0.2,0,0.4-0.1,0.4-0.3l0.1-5.8c0,0,0,0-0.1-0.1
		c-0.3,0.8-0.5,1.5-0.7,2.4c-0.2,0.9-0.2,1.8-0.2,2.7c0,0.2,0.2,0.5-0.2,0.5s-0.7,0.2-0.9-0.3c-0.6-1.4-1-2.8-1.4-4.3
		c-0.1-0.6-0.2-1.3-0.4-1.9c-0.1-0.3,0-0.5,0.3-0.6c1-0.4,2-0.6,3-0.7c0.4,0,0.5-0.2,0.5-0.5c0-0.1,0-0.1,0-0.2c0-1,0-1-1-0.8
		c-0.9,0.2-1.8,0.6-2.6,1.1c-0.3,0.2-0.5,0.2-0.5-0.2c-0.1-1-0.2-1.9-0.2-2.9c0-0.6,0-0.6,0.6-0.4c0.8,0.3,1.6,0.6,2.4,1
		c0.2,0.1,0.4,0.2,0.6,0.1c-0.1-1.5-0.2-3.1-0.3-4.6c-0.1-0.9-0.2-1.9-0.4-2.8c0-0.3,0.1-0.4,0.3-0.5s0.5-0.1,0.8-0.2
		c0.4-0.1,0.6-0.6,0.5-1c0,0,0,0,0,0c-0.1-0.2-0.2-0.1-0.4-0.1c-0.4,0-0.8,0.1-1.2,0.3c-0.3,0.1-0.4,0.1-0.3-0.3
		c0.2-1.1,0.6-2.2,0.9-3.3c0.1-0.3,0.4-0.5,0.7-0.5c0.3,0,0.4-0.2,0.4-0.4s0-0.9,0-1.3c0-0.2-0.1-0.6,0.3-0.6s0.3,0.4,0.3,0.6
		c0,0.4,0,0.8,0,1.2s0,0.5,0.4,0.5c0.5,0,0.9,0.3,1,0.8c0.3,0.8,0.7,1.6,1,2.4c0.1,0.3,0.2,0.6,0.2,0.9c-0.7-0.2-1.3-0.3-2-0.4
		c-0.3,0-0.5,0-0.4,0.4s-0.2,0.7,0.4,0.7c0.7,0,1.5,0.1,2.2,0.2c0.3,0,0.5,0.2,0.5,0.5c0,0,0,0,0,0c0.2,1.6,0.7,3.2,1.5,4.7
		c0.1,0.3,0.1,0.4-0.1,0.6l-3.7,3.2c-0.1,0-0.1,0.1-0.2,0.1c-0.7,0.4-0.7,0.4-0.5,1.4c2.1-1.8,4.1-3.5,6.2-5.3
		c0.1,1,0.2,1.9,0.4,2.8c0.6,3.1,1.8,6,3.4,8.7c0.2,0.4,0.3,0.5-0.2,0.6c-2.8,0.4-5.7,0.7-8.6,1c-0.4,0-0.5-0.1-0.5-0.5
		c0.1-1.7,0-3.4-0.4-5c-0.1-0.3-0.2-0.5-0.2-0.8c0,0-0.1,0-0.1,0v1.7c0,1.6,0,3.2,0,4.8c0,0.4,0.2,0.5,0.5,0.5c2-0.1,4-0.3,6-0.6
		c0.2,0,0.6-0.3,0.6,0.2c0.1,0.6,0,0.9-0.5,1c-1.3,0.2-2.6,0.8-3.7,1.5c-0.3,0.1-0.5,0.3-0.7,0.6c-0.4,0.5-1,0.8-1.7,0.8
		c-6.1,0.4-12.1,0.6-18.2,0.4c-3.1-0.1-6.3-0.2-9.4-0.4c-0.3,0-0.5-0.1-0.6-0.4c-1.1-1.8-2.7-3.3-4.6-4.4c-3.7-2.1-7.4-4.1-11.1-6.2
		c-0.1,0-0.1-0.1-0.2-0.1c-0.2-0.1-0.6-0.2-0.4-0.5s0.5-0.1,0.7,0s0.4,0.1,0.6-0.1c3-2.4,5.9-4.9,8.9-7.2l6.1-5
		c0.3-0.2,0.5-0.5,0.6-0.8c0.2-0.4,0.7-0.7,1.2-0.7c0.3,0,0.2,0.3,0.1,0.4c-0.3,1.1-0.6,2.2-0.8,3.2c-0.8,3.1-1.3,6.3-1.7,9.4
		c-0.1,1-0.1,2,0,3c0,0.5-0.1,0.9-0.3,1.3c-0.1,0.2-0.3,0.2-0.5,0.2c-1.3,0-2.6,0.4-3.7,1.2c-0.1,0.1-0.2,0.1-0.3,0.3
		c1.4,0.6,2.8,1.2,4.2,1.8c0.4,0.1,0.3-0.2,0.4-0.3c0.5-1.9,0.9-3.8,1.4-5.7c0.2-0.7,0.4-1.5,0.5-2.2c0-0.3,0.3-0.5,0.6-0.5
		c1.2-0.1,2.4-0.2,3.6-0.3c0.4,0,0.5-0.1,0.5-0.5s0-0.8,0-1.2s-0.1-0.4-0.4-0.4c-1.7,0.2-3.3,0.7-4.6,1.6
		C164.5,294.9,164.3,295.1,164.2,295.2z M163.5,286c-1.1,0.8-2.1,1.6-3,2.6c-1.6,1.5-2.6,3.5-3,5.6c0,0.2-0.1,0.3-0.3,0.4
		c-0.5,0.5-1,0.9-1.4,1.3c-0.2,0.2-0.5,0.3-0.8,0.2c-2.1-0.5-4.4,0.1-6,1.5c1.1,0.6,2.1,1.1,3.1,1.6c0.3,0.2,0.7,0.2,1-0.1
		c2.9-2.5,5.6-5.3,8.4-7.9c0.1-0.2,0.2-0.4,0.3-0.6c0.5-1.4,1-2.8,1.5-4.1C163.4,286.4,163.6,286.2,163.5,286L163.5,286L163.5,286z
		 M161.1,292.9c-0.3,0.3-0.5,0.6-0.7,1c-0.5,1.2-0.7,2.5-0.4,3.8c0.1,0.5-0.3,1.1-0.8,1.2c-0.1,0-0.3,0-0.4,0
		c-1.8-0.4-3.8-0.1-5.3,1c1.4,0.7,2.8,1.4,4.1,2.2c0.2,0.1,0.4,0,0.5-0.2c1.7-2.4,3.2-4.8,4.6-7.3c0.1-0.2,0.2-0.4,0.2-0.6
		c-0.8,0.1-1.5,0.5-2,1c-0.1,0.1-0.1,0.2-0.2,0.1s0-0.1,0-0.2c0.1-0.2,0.1-0.5,0.2-0.8C161.1,293.6,161.1,293.3,161.1,292.9
		L161.1,292.9z M163.8,304.6c1.8,0.6,3.7,0.8,5.6,0.8c0.2,0,0.2-0.2,0.2-0.3c0-0.5,0-0.9,0-1.4c0-1.4,0-1.4-1.4-1.2
		C166.6,302.7,165,303.4,163.8,304.6L163.8,304.6z M175.9,305.4c0,0,0-0.1,0-0.1c-1.1-1.6-2.9-2.6-4.8-2.9c-0.3,0-0.4,0.1-0.4,0.4
		c0,0.7,0,1.5,0,2.2c0,0.4,0.1,0.5,0.4,0.5c1.1,0,2.2,0,3.3,0L175.9,305.4z M187.9,305.5c-1.2-1.4-2.8-2.3-4.6-2.5
		c-0.3,0-0.2,0.1-0.2,0.3c0,0.6,0,1.2,0,1.9c0,0.3,0.1,0.3,0.4,0.3C184.8,305.5,186.3,305.5,187.9,305.5L187.9,305.5z"/>
	<path class="st5" d="M176.6,291.6c-0.6-2-1.1-4.1-1.4-6.2c0-0.2,0-0.4,0-0.6c0.1-0.4,0.2-0.7,0.3-1.1c0.2-1.2,1.3-2.1,2.5-2
		c0.4,0,0.5,0,0.4,0.4c-0.4,1.8-0.8,3.6-1.1,5.5c-0.2,1.1-0.3,2.1-0.5,3.2C176.8,291.1,176.8,291.4,176.6,291.6z"/>
	<path class="st5" d="M177.5,280.6c0.4-1.1,0.9-2.2,1.4-3.2c0.1-0.3,0.3-0.5,0.5-0.8s0.5-0.3,0.8-0.3s0.2,0.1,0.1,0.2
		c-0.4,1.2-0.9,2.5-1.3,3.8c0,0.1-0.1,0.2-0.2,0.2L177.5,280.6z"/>
	<path class="st5" d="M165.1,282.2c0.5-1.3,1-2.5,1.6-3.6c0.1-0.1,0.2-0.3,0.3-0.3c0.1,0,0.3-0.1,0.4,0s0,0.2,0,0.3
		c-0.3,1-0.6,2-1,3.1c-0.1,0.2-0.1,0.3-0.4,0.4C165.7,282,165.4,282.1,165.1,282.2z"/>
</g>
</svg>
